<?xml version="1.0" encoding="utf-8" standalone="yes"?> <svg width="1020" height="1020" viewBox="-1 -1 51 51" xmlns="http://www.w3.org/2000/svg" xmlns:xlink="http://www.w3.org/1999/xlink" shape-rendering="crispEdges" id="qr code"><rect id="qr background" fill-opacity="1" fill="rgb(255, 255, 255)" x="-1" y="-1" width="51" height="51"></rect><path fill-opacity="1" fill="rgb(0, 0, 0)" id="qr dark pixels" fill-rule="evenodd" d="M 9 0 L 10 0 L 10 1 L 9 1 z M 11 0 L 12 0 L 12 1 L 11 1 z M 13 0 L 16 0 L 16 2 L 15 2 L 15 1 L 13 1 z M 17 0 L 20 0 L 20 1 L 19 1 L 19 2 L 20 2 L 20 3 L 19 3 L 19 4 L 18 4 L 18 2 L 17 2 z M 23 0 L 24 0 L 24 3 L 23 3 L 23 2 L 22 2 L 22 1 L 23 1 z M 25 0 L 26 0 L 26 1 L 25 1 z M 27 0 L 34 0 L 34 3 L 33 3 L 33 1 L 30 1 L 30 2 L 29 2 L 29 1 L 27 1 z M 35 0 L 38 0 L 38 1 L 40 1 L 40 0 L 41 0 L 41 3 L 40 3 L 40 4 L 39 4 L 39 2 L 36 2 L 36 1 L 35 1 z M 8 1 L 9 1 L 9 2 L 8 2 z M 26 1 L 27 1 L 27 2 L 29 2 L 29 3 L 27 3 L 27 4 L 26 4 L 26 3 L 25 3 L 25 2 L 26 2 z M 9 2 L 10 2 L 10 3 L 11 3 L 11 2 L 12 2 L 12 3 L 13 3 L 13 4 L 14 4 L 14 5 L 13 5 L 13 8 L 12 8 L 12 6 L 11 6 L 11 5 L 12 5 L 12 4 L 11 4 L 11 5 L 9 5 L 9 4 L 8 4 L 8 3 L 9 3 z M 13 2 L 14 2 L 14 3 L 13 3 z M 15 3 L 16 3 L 16 4 L 15 4 z M 24 3 L 25 3 L 25 4 L 24 4 z M 35 3 L 37 3 L 37 4 L 38 4 L 38 5 L 36 5 L 36 4 L 35 4 z M 16 4 L 18 4 L 18 5 L 17 5 L 17 7 L 18 7 L 18 6 L 19 6 L 19 7 L 20 7 L 20 5 L 21 5 L 21 4 L 22 4 L 22 6 L 21 6 L 21 8 L 20 8 L 20 10 L 21 10 L 21 9 L 22 9 L 22 11 L 21 11 L 21 12 L 20 12 L 20 11 L 19 11 L 19 10 L 17 10 L 17 8 L 16 8 L 16 6 L 15 6 L 15 8 L 14 8 L 14 5 L 16 5 z M 19 4 L 20 4 L 20 5 L 19 5 z M 29 4 L 32 4 L 32 5 L 31 5 L 31 7 L 32 7 L 32 5 L 33 5 L 33 7 L 34 7 L 34 5 L 36 5 L 36 6 L 35 6 L 35 7 L 36 7 L 36 8 L 35 8 L 35 9 L 33 9 L 33 8 L 32 8 L 32 9 L 31 9 L 31 10 L 30 10 L 30 8 L 28 8 L 28 6 L 29 6 L 29 7 L 30 7 L 30 6 L 29 6 z M 8 5 L 9 5 L 9 7 L 8 7 z M 38 5 L 39 5 L 39 7 L 40 7 L 40 9 L 39 9 L 39 8 L 37 8 L 37 7 L 38 7 z M 10 6 L 11 6 L 11 10 L 10 10 L 10 9 L 9 9 L 9 10 L 8 10 L 8 13 L 6 13 L 6 12 L 7 12 L 7 11 L 6 11 L 6 12 L 5 12 L 5 10 L 7 10 L 7 9 L 6 9 L 6 8 L 10 8 z M 36 6 L 37 6 L 37 7 L 36 7 z M 40 6 L 41 6 L 41 7 L 40 7 z M 0 8 L 5 8 L 5 10 L 4 10 L 4 12 L 3 12 L 3 11 L 2 11 L 2 9 L 0 9 z M 13 8 L 14 8 L 14 9 L 13 9 z M 36 8 L 37 8 L 37 10 L 35 10 L 35 9 L 36 9 z M 41 8 L 42 8 L 42 9 L 43 9 L 43 8 L 44 8 L 44 10 L 41 10 z M 45 8 L 46 8 L 46 9 L 47 9 L 47 8 L 48 8 L 48 10 L 49 10 L 49 15 L 48 15 L 48 16 L 49 16 L 49 17 L 47 17 L 47 18 L 49 18 L 49 20 L 48 20 L 48 19 L 46 19 L 46 20 L 45 20 L 45 18 L 46 18 L 46 17 L 45 17 L 45 16 L 47 16 L 47 14 L 48 14 L 48 12 L 47 12 L 47 10 L 45 10 z M 14 9 L 15 9 L 15 13 L 13 13 L 13 14 L 15 14 L 15 15 L 16 15 L 16 17 L 15 17 L 15 16 L 14 16 L 14 15 L 12 15 L 12 14 L 11 14 L 11 16 L 10 16 L 10 12 L 11 12 L 11 10 L 12 10 L 12 11 L 13 11 L 13 12 L 14 12 L 14 11 L 13 11 L 13 10 L 14 10 z M 24 9 L 26 9 L 26 10 L 25 10 L 25 11 L 24 11 z M 9 10 L 10 10 L 10 11 L 9 11 z M 26 10 L 28 10 L 28 11 L 29 11 L 29 10 L 30 10 L 30 11 L 31 11 L 31 12 L 32 12 L 32 13 L 33 13 L 33 14 L 32 14 L 32 15 L 30 15 L 30 14 L 29 14 L 29 15 L 28 15 L 28 16 L 27 16 L 27 15 L 26 15 L 26 14 L 28 14 L 28 13 L 30 13 L 30 12 L 27 12 L 27 11 L 26 11 z M 33 10 L 34 10 L 34 11 L 33 11 z M 37 10 L 39 10 L 39 13 L 38 13 L 38 12 L 37 12 z M 44 10 L 45 10 L 45 11 L 44 11 z M 0 11 L 2 11 L 2 12 L 1 12 L 1 13 L 2 13 L 2 12 L 3 12 L 3 13 L 4 13 L 4 15 L 6 15 L 6 16 L 5 16 L 5 17 L 6 17 L 6 18 L 5 18 L 5 19 L 3 19 L 3 18 L 2 18 L 2 17 L 3 17 L 3 16 L 2 16 L 2 15 L 1 15 L 1 14 L 0 14 z M 32 11 L 33 11 L 33 12 L 32 12 z M 41 11 L 44 11 L 44 13 L 43 13 L 43 12 L 41 12 z M 17 12 L 19 12 L 19 13 L 20 13 L 20 16 L 21 16 L 21 17 L 19 17 L 19 19 L 17 19 L 17 20 L 16 20 L 16 19 L 15 19 L 15 18 L 18 18 L 18 17 L 17 17 L 17 16 L 18 16 L 18 14 L 17 14 z M 21 12 L 26 12 L 26 14 L 24 14 L 24 13 L 21 13 z M 33 12 L 34 12 L 34 13 L 33 13 z M 35 12 L 37 12 L 37 14 L 39 14 L 39 13 L 40 13 L 40 14 L 41 14 L 41 15 L 42 15 L 42 16 L 40 16 L 40 17 L 38 17 L 38 15 L 36 15 L 36 14 L 35 14 z M 40 12 L 41 12 L 41 13 L 40 13 z M 45 12 L 46 12 L 46 13 L 45 13 z M 5 13 L 6 13 L 6 14 L 5 14 z M 15 13 L 16 13 L 16 14 L 15 14 z M 41 13 L 43 13 L 43 15 L 42 15 L 42 14 L 41 14 z M 44 13 L 45 13 L 45 14 L 46 14 L 46 15 L 45 15 L 45 16 L 44 16 z M 6 14 L 8 14 L 8 15 L 6 15 z M 23 14 L 24 14 L 24 16 L 23 16 z M 33 14 L 35 14 L 35 15 L 34 15 L 34 16 L 32 16 L 32 15 L 33 15 z M 0 15 L 1 15 L 1 16 L 2 16 L 2 17 L 1 17 L 1 18 L 0 18 z M 8 15 L 9 15 L 9 17 L 6 17 L 6 16 L 8 16 z M 21 15 L 22 15 L 22 16 L 21 16 z M 25 15 L 26 15 L 26 16 L 25 16 z M 35 15 L 36 15 L 36 16 L 35 16 z M 13 16 L 14 16 L 14 17 L 13 17 z M 22 16 L 23 16 L 23 17 L 22 17 z M 24 16 L 25 16 L 25 19 L 24 19 z M 29 16 L 30 16 L 30 17 L 31 17 L 31 19 L 30 19 L 30 18 L 29 18 L 29 20 L 27 20 L 27 19 L 26 19 L 26 18 L 28 18 L 28 17 L 29 17 z M 36 16 L 37 16 L 37 18 L 40 18 L 40 19 L 36 19 z M 42 16 L 44 16 L 44 18 L 42 18 z M 9 17 L 10 17 L 10 18 L 9 18 z M 11 17 L 12 17 L 12 20 L 13 20 L 13 21 L 14 21 L 14 22 L 13 22 L 13 23 L 12 23 L 12 22 L 11 22 L 11 23 L 10 23 L 10 20 L 9 20 L 9 22 L 8 22 L 8 21 L 6 21 L 6 22 L 5 22 L 5 21 L 4 21 L 4 20 L 8 20 L 8 19 L 6 19 L 6 18 L 9 18 L 9 19 L 10 19 L 10 18 L 11 18 z M 14 17 L 15 17 L 15 18 L 14 18 z M 32 18 L 34 18 L 34 19 L 35 19 L 35 20 L 34 20 L 34 21 L 33 21 L 33 20 L 32 20 z M 13 19 L 14 19 L 14 20 L 13 20 z M 19 19 L 21 19 L 21 20 L 19 20 z M 25 19 L 26 19 L 26 20 L 25 20 z M 41 19 L 43 19 L 43 22 L 41 22 L 41 21 L 40 21 L 40 20 L 41 20 z M 2 20 L 3 20 L 3 21 L 2 21 z M 15 20 L 16 20 L 16 21 L 15 21 z M 17 20 L 19 20 L 19 21 L 20 21 L 20 22 L 19 22 L 19 25 L 18 25 L 18 24 L 16 24 L 16 23 L 15 23 L 15 22 L 16 22 L 16 21 L 17 21 L 17 22 L 18 22 L 18 21 L 17 21 z M 22 20 L 25 20 L 25 21 L 26 21 L 26 22 L 21 22 L 21 21 L 22 21 z M 29 20 L 32 20 L 32 22 L 31 22 L 31 24 L 30 24 L 30 23 L 29 23 L 29 22 L 28 22 L 28 21 L 29 21 z M 35 20 L 37 20 L 37 21 L 36 21 L 36 22 L 37 22 L 37 23 L 36 23 L 36 24 L 35 24 L 35 23 L 33 23 L 33 22 L 35 22 z M 46 20 L 48 20 L 48 21 L 47 21 L 47 22 L 46 22 L 46 23 L 45 23 L 45 21 L 46 21 z M 3 21 L 4 21 L 4 22 L 3 22 z M 39 21 L 40 21 L 40 23 L 39 23 z M 48 21 L 49 21 L 49 25 L 47 25 L 47 26 L 49 26 L 49 31 L 47 31 L 47 30 L 48 30 L 48 28 L 47 28 L 47 27 L 45 27 L 45 24 L 47 24 L 47 22 L 48 22 z M 20 22 L 21 22 L 21 24 L 20 24 z M 27 22 L 28 22 L 28 23 L 27 23 z M 2 23 L 4 23 L 4 24 L 3 24 L 3 25 L 2 25 L 2 26 L 1 26 L 1 24 L 2 24 z M 11 23 L 12 23 L 12 24 L 13 24 L 13 23 L 14 23 L 14 25 L 11 25 z M 28 23 L 29 23 L 29 24 L 28 24 z M 32 23 L 33 23 L 33 24 L 32 24 z M 37 23 L 38 23 L 38 24 L 39 24 L 39 25 L 37 25 L 37 26 L 36 26 L 36 24 L 37 24 z M 15 24 L 16 24 L 16 25 L 15 25 z M 21 24 L 22 24 L 22 25 L 21 25 z M 27 24 L 28 24 L 28 25 L 27 25 z M 29 24 L 30 24 L 30 25 L 31 25 L 31 26 L 29 26 z M 31 24 L 32 24 L 32 25 L 31 25 z M 33 24 L 34 24 L 34 25 L 33 25 z M 3 25 L 4 25 L 4 27 L 2 27 L 2 26 L 3 26 z M 9 25 L 10 25 L 10 26 L 9 26 z M 14 25 L 15 25 L 15 26 L 17 26 L 17 27 L 16 27 L 16 28 L 15 28 L 15 29 L 13 29 L 13 28 L 14 28 L 14 27 L 13 27 L 13 26 L 14 26 z M 17 25 L 18 25 L 18 26 L 17 26 z M 19 25 L 20 25 L 20 27 L 18 27 L 18 26 L 19 26 z M 0 26 L 1 26 L 1 27 L 0 27 z M 10 26 L 11 26 L 11 27 L 10 27 z M 21 26 L 22 26 L 22 28 L 20 28 L 20 27 L 21 27 z M 27 26 L 29 26 L 29 27 L 31 27 L 31 28 L 32 28 L 32 29 L 31 29 L 31 30 L 32 30 L 32 29 L 33 29 L 33 30 L 35 30 L 35 31 L 34 31 L 34 32 L 35 32 L 35 33 L 34 33 L 34 34 L 33 34 L 33 32 L 32 32 L 32 33 L 31 33 L 31 34 L 29 34 L 29 33 L 30 33 L 30 32 L 31 32 L 31 31 L 30 31 L 30 30 L 29 30 L 29 29 L 30 29 L 30 28 L 26 28 L 26 27 L 27 27 z M 31 26 L 32 26 L 32 27 L 31 27 z M 37 26 L 39 26 L 39 27 L 44 27 L 44 28 L 42 28 L 42 29 L 41 29 L 41 28 L 40 28 L 40 29 L 38 29 L 38 27 L 37 27 z M 7 27 L 8 27 L 8 28 L 7 28 z M 9 27 L 10 27 L 10 29 L 9 29 L 9 31 L 8 31 L 8 28 L 9 28 z M 12 27 L 13 27 L 13 28 L 12 28 z M 17 27 L 18 27 L 18 28 L 19 28 L 19 30 L 18 30 L 18 29 L 17 29 z M 24 27 L 25 27 L 25 28 L 24 28 z M 32 27 L 34 27 L 34 28 L 32 28 z M 2 28 L 5 28 L 5 29 L 3 29 L 3 30 L 2 30 z M 6 28 L 7 28 L 7 29 L 6 29 z M 11 28 L 12 28 L 12 29 L 11 29 z M 23 28 L 24 28 L 24 29 L 23 29 z M 35 28 L 37 28 L 37 29 L 38 29 L 38 30 L 37 30 L 37 31 L 36 31 L 36 30 L 35 30 z M 44 28 L 45 28 L 45 29 L 44 29 z M 5 29 L 6 29 L 6 30 L 7 30 L 7 31 L 6 31 L 6 32 L 7 32 L 7 31 L 8 31 L 8 32 L 11 32 L 11 33 L 10 33 L 10 36 L 9 36 L 9 37 L 10 37 L 10 36 L 11 36 L 11 37 L 12 37 L 12 38 L 10 38 L 10 39 L 8 39 L 8 37 L 5 37 L 5 36 L 4 36 L 4 35 L 6 35 L 6 36 L 7 36 L 7 35 L 6 35 L 6 34 L 8 34 L 8 33 L 6 33 L 6 34 L 5 34 L 5 33 L 3 33 L 3 35 L 1 35 L 1 34 L 0 34 L 0 32 L 1 32 L 1 33 L 2 33 L 2 32 L 3 32 L 3 30 L 4 30 L 4 31 L 5 31 z M 10 29 L 11 29 L 11 31 L 10 31 z M 15 29 L 16 29 L 16 30 L 15 30 z M 21 29 L 22 29 L 22 31 L 21 31 z M 24 29 L 25 29 L 25 30 L 26 30 L 26 31 L 25 31 L 25 32 L 24 32 z M 43 29 L 44 29 L 44 31 L 45 31 L 45 32 L 43 32 L 43 31 L 41 31 L 41 30 L 43 30 z M 45 29 L 46 29 L 46 30 L 45 30 z M 0 30 L 2 30 L 2 31 L 0 31 z M 13 30 L 14 30 L 14 31 L 16 31 L 16 32 L 14 32 L 14 33 L 13 33 L 13 34 L 11 34 L 11 33 L 12 33 L 12 32 L 11 32 L 11 31 L 13 31 z M 17 30 L 18 30 L 18 31 L 19 31 L 19 33 L 20 33 L 20 35 L 19 35 L 19 37 L 20 37 L 20 39 L 19 39 L 19 38 L 17 38 L 17 39 L 19 39 L 19 41 L 20 41 L 20 43 L 21 43 L 21 42 L 22 42 L 22 44 L 21 44 L 21 45 L 20 45 L 20 44 L 19 44 L 19 43 L 18 43 L 18 41 L 17 41 L 17 40 L 16 40 L 16 39 L 14 39 L 14 38 L 16 38 L 16 37 L 17 37 L 17 35 L 18 35 L 18 33 L 17 33 z M 19 30 L 20 30 L 20 31 L 19 31 z M 27 30 L 28 30 L 28 31 L 29 31 L 29 32 L 27 32 z M 35 31 L 36 31 L 36 32 L 35 32 z M 37 31 L 38 31 L 38 32 L 37 32 z M 39 31 L 41 31 L 41 34 L 40 34 L 40 33 L 39 33 z M 21 32 L 22 32 L 22 33 L 26 33 L 26 34 L 23 34 L 23 35 L 22 35 L 22 34 L 21 34 z M 26 32 L 27 32 L 27 33 L 26 33 z M 36 32 L 37 32 L 37 33 L 36 33 z M 42 32 L 43 32 L 43 33 L 42 33 z M 45 32 L 47 32 L 47 33 L 45 33 z M 48 32 L 49 32 L 49 33 L 48 33 z M 14 33 L 15 33 L 15 34 L 14 34 z M 43 33 L 44 33 L 44 34 L 43 34 z M 27 34 L 28 34 L 28 35 L 30 35 L 30 36 L 26 36 L 26 37 L 25 37 L 25 36 L 24 36 L 24 37 L 23 37 L 23 35 L 27 35 z M 31 34 L 32 34 L 32 35 L 31 35 z M 34 34 L 39 34 L 39 35 L 40 35 L 40 36 L 41 36 L 41 37 L 42 37 L 42 38 L 43 38 L 43 37 L 44 37 L 44 38 L 46 38 L 46 37 L 47 37 L 47 38 L 48 38 L 48 37 L 47 37 L 47 35 L 44 35 L 44 34 L 49 34 L 49 35 L 48 35 L 48 36 L 49 36 L 49 39 L 48 39 L 48 40 L 47 40 L 47 39 L 44 39 L 44 40 L 43 40 L 43 39 L 41 39 L 41 38 L 39 38 L 39 37 L 38 37 L 38 36 L 37 36 L 37 35 L 35 35 L 35 36 L 37 36 L 37 37 L 34 37 L 34 38 L 35 38 L 35 39 L 36 39 L 36 40 L 35 40 L 35 41 L 34 41 L 34 42 L 33 42 L 33 44 L 31 44 L 31 46 L 30 46 L 30 45 L 29 45 L 29 43 L 32 43 L 32 42 L 29 42 L 29 43 L 28 43 L 28 42 L 27 42 L 27 41 L 29 41 L 29 40 L 26 40 L 26 39 L 27 39 L 27 37 L 30 37 L 30 36 L 32 36 L 32 37 L 33 37 L 33 36 L 34 36 zM 28 38 L 30 38 L 30 39 L 28 39 z M 31 38 L 32 38 L 32 39 L 31 39 z M 31 40 L 33 40 L 33 41 L 31 41 z M 41 34 L 43 34 L 43 37 L 42 37 L 42 36 L 41 36 z M 12 35 L 14 35 L 14 36 L 13 36 L 13 37 L 12 37 z M 1 36 L 3 36 L 3 37 L 1 37 z M 15 36 L 16 36 L 16 37 L 15 37 z M 20 36 L 21 36 L 21 37 L 20 37 z M 44 36 L 46 36 L 46 37 L 44 37 z M 4 37 L 5 37 L 5 38 L 4 38 z M 13 37 L 14 37 L 14 38 L 13 38 z M 21 37 L 22 37 L 22 38 L 23 38 L 23 39 L 21 39 z M 24 37 L 25 37 L 25 38 L 24 38 z M 1 38 L 2 38 L 2 39 L 4 39 L 4 40 L 3 40 L 3 41 L 0 41 L 0 40 L 1 40 z M 5 38 L 7 38 L 7 39 L 5 39 z M 25 38 L 26 38 L 26 39 L 25 39 z M 36 38 L 39 38 L 39 39 L 36 39 z M 10 39 L 12 39 L 12 40 L 11 40 L 11 41 L 13 41 L 13 39 L 14 39 L 14 41 L 15 41 L 15 42 L 16 42 L 16 43 L 15 43 L 15 44 L 16 44 L 16 47 L 15 47 L 15 45 L 13 45 L 13 48 L 12 48 L 12 47 L 11 47 L 11 46 L 12 46 L 12 45 L 11 45 L 11 44 L 12 44 L 12 43 L 13 43 L 13 44 L 14 44 L 14 43 L 13 43 L 13 42 L 11 42 L 11 43 L 10 43 z M 20 39 L 21 39 L 21 40 L 20 40 z M 23 39 L 25 39 L 25 40 L 23 40 z M 39 39 L 41 39 L 41 40 L 40 40 L 40 41 L 39 41 z M 6 40 L 7 40 L 7 41 L 6 41 z M 15 40 L 16 40 L 16 41 L 15 41 z M 36 40 L 37 40 L 37 41 L 36 41 z M 45 40 L 46 40 L 46 42 L 45 42 z M 48 40 L 49 40 L 49 41 L 48 41 z M 8 41 L 9 41 L 9 43 L 8 43 z M 34 42 L 35 42 L 35 43 L 36 43 L 36 44 L 37 44 L 37 45 L 38 45 L 38 47 L 36 47 L 36 45 L 33 45 L 33 44 L 34 44 z M 36 42 L 40 42 L 40 44 L 39 44 L 39 45 L 38 45 L 38 43 L 36 43 z M 46 42 L 49 42 L 49 45 L 48 45 L 48 44 L 47 44 L 47 43 L 46 43 z M 27 43 L 28 43 L 28 44 L 27 44 z M 8 44 L 10 44 L 10 45 L 11 45 L 11 46 L 10 46 L 10 47 L 11 47 L 11 48 L 12 48 L 12 49 L 10 49 L 10 48 L 9 48 L 9 49 L 8 49 z M 17 44 L 19 44 L 19 45 L 20 45 L 20 46 L 18 46 L 18 45 L 17 45 z M 45 44 L 46 44 L 46 47 L 45 47 z M 21 45 L 24 45 L 24 46 L 26 46 L 26 45 L 29 45 L 29 46 L 30 46 L 30 48 L 27 48 L 27 47 L 25 47 L 25 48 L 27 48 L 27 49 L 23 49 L 23 46 L 21 46 z M 32 45 L 33 45 L 33 46 L 34 46 L 34 47 L 36 47 L 36 48 L 35 48 L 35 49 L 34 49 L 34 48 L 31 48 L 31 46 L 32 46 z M 39 45 L 41 45 L 41 46 L 39 46 z M 42 45 L 44 45 L 44 48 L 43 48 L 43 49 L 42 49 L 42 48 L 41 48 L 41 49 L 40 49 L 40 47 L 41 47 L 41 46 L 42 46 L 42 47 L 43 47 L 43 46 L 42 46 z M 47 45 L 48 45 L 48 46 L 47 46 z M 17 46 L 18 46 L 18 47 L 17 47 z M 19 47 L 20 47 L 20 48 L 19 48 z M 48 47 L 49 47 L 49 49 L 45 49 L 45 48 L 48 48 z M 13 48 L 14 48 L 14 49 L 13 49 z M 17 48 L 19 48 L 19 49 L 17 49 z M 36 48 L 38 48 L 38 49 L 36 49 z"></path><path id="qr squares" d="M0,0h7h0v0v7v0h0h-7h0v0v-7v0h0zM1,1h5h0v0v5v0h0h-5h0v0v-5v0h0zM2,2h3h0v0v3v0h0h-3h0v0v-3v0h0z M42,0h7h0v0v7v0h0h-7h0v0v-7v0h0zM43,1h5h0v0v5v0h0h-5h0v0v-5v0h0zM44,2h3h0v0v3v0h0h-3h0v0v-3v0h0z M0,42h7h0v0v7v0h0h-7h0v0v-7v0h0zM1,43h5h0v0v5v0h0h-5h0v0v-5v0h0zM2,44h3h0v0v3v0h0h-3h0v0v-3v0h0zM4,22h5h0v0v5v0h0h-5h0v0v-5v0h0zM5,23h3h0v0v3v0h0h-3h0v0v-3v0h0zM6,24h1h0v0v1v0h0h-1h0v0v-1v0h0z M22,4h5h0v0v5v0h0h-5h0v0v-5v0h0zM23,5h3h0v0v3v0h0h-3h0v0v-3v0h0zM24,6h1h0v0v1v0h0h-1h0v0v-1v0h0z M22,22h5h0v0v5v0h0h-5h0v0v-5v0h0zM23,23h3h0v0v3v0h0h-3h0v0v-3v0h0zM24,24h1h0v0v1v0h0h-1h0v0v-1v0h0z M22,40h5h0v0v5v0h0h-5h0v0v-5v0h0zM23,41h3h0v0v3v0h0h-3h0v0v-3v0h0zM24,42h1h0v0v1v0h0h-1h0v0v-1v0h0z M40,22h5h0v0v5v0h0h-5h0v0v-5v0h0zM41,23h3h0v0v3v0h0h-3h0v0v-3v0h0zM42,24h1h0v0v1v0h0h-1h0v0v-1v0h0z M40,40h5h0v0v5v0h0h-5h0v0v-5v0h0zM41,41h3h0v0v3v0h0h-3h0v0v-3v0h0zM42,42h1h0v0v1v0h0h-1h0v0v-1v0h0z" fill-rule="evenodd" fill-opacity="1" fill="rgb(0, 0, 0)"></path></svg>